<?xml version="1.0" encoding="UTF-8"?>
<svg xmlns="http://www.w3.org/2000/svg" xmlns:xlink="http://www.w3.org/1999/xlink" width="26pt" height="26pt" viewBox="0 0 26 26" version="1.1">
<g id="surface33624249">
<path style=" stroke:none;fill-rule:nonzero;fill:rgb(13.725491%,13.725491%,13.725491%);fill-opacity:1;" d="M 21.125 0 L 4.875 0 C 2.183594 0 0 2.183594 0 4.875 L 0 21.125 C 0 23.816406 2.183594 26 4.875 26 L 21.125 26 C 23.816406 26 26 23.816406 26 21.125 L 26 4.875 C 26 2.183594 23.816406 0 21.125 0 Z M 8.46875 15.222656 C 8.902344 15.222656 9.347656 15.132812 9.636719 14.996094 C 9.699219 14.964844 9.78125 14.960938 9.851562 14.992188 C 9.917969 15.023438 9.96875 15.082031 9.988281 15.152344 L 10.148438 15.777344 C 10.179688 15.890625 10.125 16.011719 10.019531 16.0625 C 9.71875 16.214844 9.105469 16.378906 8.304688 16.378906 C 6.332031 16.378906 5.058594 15.074219 5.058594 13.058594 C 5.058594 11.035156 6.464844 9.621094 8.476562 9.621094 C 9.386719 9.621094 9.898438 9.847656 10.03125 9.917969 C 10.136719 9.976562 10.191406 10.097656 10.15625 10.214844 L 9.96875 10.851562 C 9.945312 10.921875 9.894531 10.980469 9.824219 11.007812 C 9.769531 11.035156 9.679688 11.035156 9.613281 11.003906 C 9.316406 10.859375 8.921875 10.777344 8.503906 10.777344 C 7.175781 10.777344 6.386719 11.621094 6.386719 13.03125 C 6.386719 14.402344 7.164062 15.222656 8.46875 15.222656 Z M 13.128906 16.378906 C 12.515625 16.378906 11.820312 16.203125 11.441406 15.949219 C 11.347656 15.886719 11.308594 15.773438 11.339844 15.667969 L 11.539062 15.011719 C 11.5625 14.9375 11.617188 14.878906 11.6875 14.851562 C 11.777344 14.820312 11.847656 14.832031 11.910156 14.871094 C 12.273438 15.097656 12.75 15.230469 13.183594 15.230469 C 13.820312 15.230469 14.199219 14.9375 14.199219 14.445312 C 14.199219 14.058594 14.046875 13.789062 13.21875 13.472656 C 12.015625 13.046875 11.453125 12.425781 11.453125 11.519531 C 11.453125 10.402344 12.363281 9.621094 13.667969 9.621094 C 14.433594 9.621094 14.914062 9.828125 15.132812 9.953125 C 15.234375 10.011719 15.285156 10.136719 15.246094 10.25 L 15.03125 10.886719 C 15.007812 10.957031 14.953125 11.011719 14.882812 11.039062 C 14.816406 11.066406 14.734375 11.0625 14.671875 11.027344 C 14.457031 10.910156 14.105469 10.769531 13.640625 10.769531 C 12.980469 10.769531 12.746094 11.125 12.746094 11.429688 C 12.746094 11.789062 12.902344 12.019531 13.792969 12.367188 C 14.992188 12.828125 15.5 13.429688 15.5 14.382812 C 15.503906 15.304688 14.882812 16.378906 13.128906 16.378906 Z M 18.566406 16.378906 C 17.953125 16.378906 17.257812 16.203125 16.878906 15.949219 C 16.785156 15.886719 16.746094 15.773438 16.777344 15.667969 L 16.976562 15.011719 C 16.996094 14.9375 17.054688 14.878906 17.125 14.851562 C 17.214844 14.820312 17.285156 14.832031 17.347656 14.875 C 17.710938 15.097656 18.1875 15.230469 18.617188 15.230469 C 19.257812 15.230469 19.640625 14.9375 19.640625 14.445312 C 19.640625 14.058594 19.484375 13.789062 18.65625 13.472656 C 17.453125 13.046875 16.894531 12.425781 16.894531 11.519531 C 16.894531 10.402344 17.804688 9.621094 19.105469 9.621094 C 19.871094 9.621094 20.351562 9.828125 20.570312 9.953125 C 20.675781 10.011719 20.722656 10.136719 20.683594 10.25 L 20.46875 10.886719 C 20.445312 10.957031 20.390625 11.011719 20.324219 11.039062 C 20.257812 11.066406 20.175781 11.0625 20.113281 11.027344 C 19.898438 10.910156 19.542969 10.769531 19.078125 10.769531 C 18.421875 10.769531 18.1875 11.125 18.1875 11.429688 C 18.1875 11.789062 18.34375 12.019531 19.230469 12.367188 C 20.429688 12.828125 20.941406 13.429688 20.941406 14.382812 C 20.941406 15.304688 20.320312 16.378906 18.566406 16.378906 Z M 18.566406 16.378906 "/>
</g>
</svg>
