<?xml version="1.0" encoding="UTF-8"?>
<svg xmlns="http://www.w3.org/2000/svg" xmlns:xlink="http://www.w3.org/1999/xlink" width="24pt" height="24pt" viewBox="0 0 24 24" version="1.1">
<g id="surface33663257">
<path style=" stroke:none;fill-rule:nonzero;fill:rgb(76.47059%,72.941178%,72.941178%);fill-opacity:1;" d="M 19 3 L 14.816406 3 C 14.402344 1.835938 13.304688 1 12 1 C 10.695312 1 9.597656 1.835938 9.183594 3 L 5 3 C 3.894531 3 3 3.894531 3 5 L 3 19 C 3 20.105469 3.894531 21 5 21 L 19 21 C 20.105469 21 21 20.105469 21 19 L 21 5 C 21 3.894531 20.105469 3 19 3 Z M 12 3 C 12.550781 3 13 3.449219 13 4 C 13 4.550781 12.550781 5 12 5 C 11.449219 5 11 4.550781 11 4 C 11 3.449219 11.449219 3 12 3 Z M 12 8 C 13.132812 8 14 8.867188 14 10 C 14 11.132812 13.132812 12 12 12 C 10.867188 12 10 11.132812 10 10 C 10 8.867188 10.867188 8 12 8 Z M 15.5 16 L 8.5 16 C 8.222656 16 8 15.777344 8 15.5 L 8 15.21875 C 8 13.910156 9.816406 13 12 13 C 14.183594 13 16 13.910156 16 15.21875 L 16 15.5 C 16 15.777344 15.777344 16 15.5 16 Z M 15.5 16 "/>
</g>
</svg>
