<?xml version="1.0" encoding="UTF-8"?>
<svg xmlns="http://www.w3.org/2000/svg" xmlns:xlink="http://www.w3.org/1999/xlink" width="50pt" height="50pt" viewBox="0 0 50 50" version="1.1">
<g id="surface33630413">
<path style=" stroke:none;fill-rule:nonzero;fill:rgb(13.725491%,13.725491%,13.725491%);fill-opacity:1;" d="M 11.949219 8 C 11.90625 8 11.863281 8.007812 11.820312 8.011719 L 0.820312 10.015625 C 0.507812 10.074219 0.242188 10.273438 0.101562 10.558594 C -0.0390625 10.847656 -0.0351562 11.179688 0.113281 11.464844 L 12.113281 34.464844 C 12.332031 34.882812 12.8125 35.089844 13.269531 34.964844 L 24.066406 31.964844 L 30.132812 42.5 C 30.375 42.921875 30.890625 43.105469 31.347656 42.9375 L 48.355469 36.652344 C 48.640625 36.546875 48.867188 36.3125 48.960938 36.019531 C 49.054688 35.726562 49.007812 35.40625 48.835938 35.152344 L 43.089844 26.679688 L 49.269531 24.964844 C 49.578125 24.875 49.828125 24.644531 49.941406 24.339844 C 50.050781 24.035156 50.007812 23.699219 49.824219 23.433594 L 44.324219 15.457031 C 44.085938 15.109375 43.65625 14.949219 43.246094 15.058594 L 35.746094 17.035156 C 35.433594 17.117188 35.179688 17.34375 35.0625 17.648438 C 34.949219 17.953125 34.992188 18.292969 35.171875 18.558594 L 39.875 25.496094 L 25.027344 29.621094 L 12.863281 8.5 C 12.675781 8.175781 12.324219 7.980469 11.945312 8 Z M 11.484375 10.105469 L 23.035156 30.175781 L 13.511719 32.820312 L 2.515625 11.738281 Z M 43.078125 17.167969 L 47.378906 23.410156 L 41.910156 24.933594 L 37.621094 18.605469 Z M 41.058594 27.246094 L 46.464844 35.21875 L 31.445312 40.769531 L 26.058594 31.410156 Z M 41.058594 27.246094 "/>
</g>
</svg>
