<?xml version="1.0" encoding="UTF-8"?>
<svg xmlns="http://www.w3.org/2000/svg" xmlns:xlink="http://www.w3.org/1999/xlink" width="24pt" height="24pt" viewBox="0 0 24 24" version="1.1">
<g id="surface33625674">
<path style=" stroke:none;fill-rule:nonzero;fill:rgb(13.725491%,13.725491%,13.725491%);fill-opacity:1;" d="M 20.40625 3.585938 L 19.054688 19.359375 C 19.023438 19.75 18.761719 20.085938 18.394531 20.214844 L 12.503906 22.320312 C 12.179688 22.4375 11.820312 22.4375 11.496094 22.320312 L 5.605469 20.214844 C 5.238281 20.085938 4.976562 19.75 4.945312 19.359375 L 3.59375 3.585938 C 3.542969 3 4.003906 2.5 4.589844 2.5 L 19.410156 2.5 C 19.996094 2.5 20.457031 3 20.40625 3.585938 Z M 17.5 6 L 6.503906 6 L 7.085938 12.5 L 14.953125 12.5 L 14.671875 15.738281 L 12 16.375 L 9.335938 15.746094 L 9.183594 14 L 7.179688 14 L 7.464844 17.355469 L 12 18.425781 L 16.53125 17.355469 L 17.144531 10.5 L 8.914062 10.5 L 8.695312 8 L 17.351562 8 Z M 17.5 6 "/>
</g>
</svg>
