<?xml version="1.0" encoding="UTF-8"?>
<svg xmlns="http://www.w3.org/2000/svg" xmlns:xlink="http://www.w3.org/1999/xlink" width="24pt" height="24pt" viewBox="0 0 24 24" version="1.1">
<g id="surface28570650">
<path style=" stroke:none;fill-rule:nonzero;fill:rgb(76.47059%,72.941178%,72.941178%);fill-opacity:1;" d="M 12 22 C 17.523438 22 22 17.523438 22 12 C 22 6.476562 17.523438 2 12 2 C 6.476562 2 2 6.476562 2 12 C 2 17.523438 6.476562 22 12 22 Z M 12 11 L 7 15 L 7 12 L 12 8 L 17 12 L 17 15 Z M 12 20 C 7.582031 20 4 16.417969 4 12 C 4 7.582031 7.582031 4 12 4 C 16.417969 4 20 7.582031 20 12 C 20 16.417969 16.417969 20 12 20 Z M 12 20 "/>
</g>
</svg>
