<?xml version="1.0" encoding="UTF-8"?>
<svg xmlns="http://www.w3.org/2000/svg" xmlns:xlink="http://www.w3.org/1999/xlink" width="24pt" height="24pt" viewBox="0 0 24 24" version="1.1">
<g id="surface24134548">
<path style=" stroke:none;fill-rule:nonzero;fill:rgb(76.47059%,72.941178%,72.941178%);fill-opacity:1;" d="M 18.25 3 L 5.75 3 C 4.234375 3 3 4.234375 3 5.75 L 3 18.25 C 3 19.765625 4.234375 21 5.75 21 L 18.25 21 C 19.765625 21 21 19.765625 21 18.25 L 21 5.75 C 21 4.234375 19.765625 3 18.25 3 Z M 9 17 C 9 17.277344 8.777344 17.5 8.5 17.5 L 7 17.5 C 6.722656 17.5 6.5 17.277344 6.5 17 L 6.5 10.5 C 6.5 10.222656 6.722656 10 7 10 L 8.5 10 C 8.777344 10 9 10.222656 9 10.5 Z M 7.75 9 C 7.058594 9 6.5 8.441406 6.5 7.75 C 6.5 7.058594 7.058594 6.5 7.75 6.5 C 8.441406 6.5 9 7.058594 9 7.75 C 9 8.441406 8.441406 9 7.75 9 Z M 17.5 17 C 17.5 17.277344 17.277344 17.5 17 17.5 L 15.5 17.5 C 15.222656 17.5 15 17.277344 15 17 L 15 13.25 C 15 12.558594 14.441406 12 13.75 12 C 13.058594 12 12.5 12.558594 12.5 13.25 L 12.5 17 C 12.5 17.277344 12.277344 17.5 12 17.5 L 10.5 17.5 C 10.222656 17.5 10 17.277344 10 17 L 10 10.5 C 10 10.222656 10.222656 10 10.5 10 L 12 10 C 12.277344 10 12.5 10.222656 12.5 10.5 L 12.5 10.769531 C 13.03125 10.292969 13.730469 10 14.5 10 C 16.15625 10 17.5 11.34375 17.5 13 Z M 17.5 17 "/>
</g>
</svg>
