<svg width="120" height="115" viewBox="0 0 120 115" fill="none" xmlns="http://www.w3.org/2000/svg">
<path d="M87.7514 39.2742C96.4086 56.1918 88.9016 77.2521 70.5858 86.1862C52.27 95.1203 30.5133 88.3345 21.856 71.417C13.1988 54.4994 20.7059 33.4392 39.0216 24.505C57.3374 15.5709 79.0941 22.3567 87.7514 39.2742Z" fill="#C4C4C4" fill-opacity="0.01" stroke="#C4BABA" stroke-width="5"/>
<path d="M97.3084 43.5201C105.966 60.4377 98.4586 81.4979 80.1428 90.4321C61.827 99.3662 40.0703 92.5804 31.4131 75.6628C22.7558 58.7453 30.2629 37.685 48.5786 28.7509C66.8944 19.8167 88.6512 26.6026 97.3084 43.5201Z" fill="#C4C4C4" fill-opacity="0.01" stroke="#C4BABA" stroke-width="5"/>
<path d="M58.2899 64.7486C41.6066 77.5891 40.2772 67.1219 41.6979 60.2833" stroke="#C4BABA" stroke-width="5"/>
<mask id="path-4-inside-1" fill="white">
<path d="M47.9131 36.4869L48.0433 40.1819L51.9591 41.396L48.1237 42.4655L48.2539 46.1606L45.7533 43.1265L41.918 44.1961L44.2079 41.2514L41.7073 38.2174L45.6231 39.4315L47.9131 36.4869Z"/>
</mask>
<path d="M47.9131 36.4869L52.9617 36.3052L52.474 22.4652L43.8969 33.4946L47.9131 36.4869ZM48.0433 40.1819L42.9947 40.3635L43.1174 43.8475L46.5089 44.899L48.0433 40.1819ZM51.9591 41.396L53.3324 46.1542L69.5069 41.6439L53.4935 36.6789L51.9591 41.396ZM48.1237 42.4655L46.7505 37.7073L42.9386 38.7703L43.0752 42.6472L48.1237 42.4655ZM48.2539 46.1606L44.3204 49.2734L53.8249 60.8055L53.3025 45.9789L48.2539 46.1606ZM45.7533 43.1265L49.6869 40.0137L47.5925 37.4725L44.3801 38.3683L45.7533 43.1265ZM41.918 44.1961L37.9018 41.2038L28.7132 53.0194L43.2912 48.9543L41.918 44.1961ZM44.2079 41.2514L48.2241 44.2436L50.6267 41.1541L48.1415 38.1386L44.2079 41.2514ZM41.7073 38.2174L43.2417 33.5002L27.2283 28.5352L37.7737 41.3302L41.7073 38.2174ZM45.6231 39.4315L44.0888 44.1486L47.4802 45.2002L49.6394 42.4237L45.6231 39.4315ZM42.8645 36.6685L42.9947 40.3635L53.0919 40.0002L52.9617 36.3052L42.8645 36.6685ZM46.5089 44.899L50.4248 46.1132L53.4935 36.6789L49.5777 35.4647L46.5089 44.899ZM50.5858 36.6378L46.7505 37.7073L49.497 47.2238L53.3324 46.1542L50.5858 36.6378ZM43.0752 42.6472L43.2053 46.3422L53.3025 45.9789L53.1723 42.2839L43.0752 42.6472ZM52.1875 43.0478L49.6869 40.0137L41.8198 46.2393L44.3204 49.2734L52.1875 43.0478ZM44.3801 38.3683L40.5447 39.4378L43.2912 48.9543L47.1266 47.8848L44.3801 38.3683ZM45.9342 47.1883L48.2241 44.2436L40.1917 38.2592L37.9018 41.2038L45.9342 47.1883ZM48.1415 38.1386L45.6409 35.1046L37.7737 41.3302L40.2743 44.3642L48.1415 38.1386ZM40.1729 42.9345L44.0888 44.1486L47.1575 34.7144L43.2417 33.5002L40.1729 42.9345ZM49.6394 42.4237L51.9293 39.4791L43.8969 33.4946L41.6069 36.4393L49.6394 42.4237Z" fill="#C4BABA" mask="url(#path-4-inside-1)"/>
<mask id="path-6-inside-2" fill="white">
<path d="M69.2065 42.3003L69.3367 45.9953L73.2526 47.2095L69.4172 48.279L69.5474 51.974L67.0468 48.94L63.2114 50.0095L65.5013 47.0649L63.0008 44.0308L66.9166 45.245L69.2065 42.3003Z"/>
</mask>
<path d="M69.2065 42.3003L74.2551 42.1187L73.7675 28.2786L65.1903 39.3081L69.2065 42.3003ZM69.3367 45.9953L64.2881 46.177L64.4109 49.6609L67.8024 50.7125L69.3367 45.9953ZM73.2526 47.2095L74.6259 51.9677L90.8003 47.4574L74.787 42.4923L73.2526 47.2095ZM69.4172 48.279L68.0439 43.5208L64.232 44.5837L64.3686 48.4606L69.4172 48.279ZM69.5474 51.974L65.6138 55.0868L75.1184 66.6189L74.596 51.7924L69.5474 51.974ZM67.0468 48.94L70.9804 45.8272L68.8859 43.286L65.6735 44.1818L67.0468 48.94ZM63.2114 50.0095L59.1952 47.0173L50.0067 58.8329L64.5847 54.7677L63.2114 50.0095ZM65.5013 47.0649L69.5175 50.0571L71.9202 46.9675L69.4349 43.9521L65.5013 47.0649ZM63.0008 44.0308L64.5351 39.3137L48.5218 34.3486L59.0672 47.1436L63.0008 44.0308ZM66.9166 45.245L65.3822 49.9621L68.7737 51.0137L70.9328 48.2372L66.9166 45.245ZM64.158 42.4819L64.2881 46.177L74.3853 45.8137L74.2551 42.1187L64.158 42.4819ZM67.8024 50.7125L71.7182 51.9266L74.787 42.4923L70.8711 41.2782L67.8024 50.7125ZM71.8793 42.4513L68.0439 43.5208L70.7905 53.0372L74.6259 51.9677L71.8793 42.4513ZM64.3686 48.4606L64.4988 52.1557L74.596 51.7924L74.4658 48.0974L64.3686 48.4606ZM73.481 48.8612L70.9804 45.8272L63.1132 52.0528L65.6138 55.0868L73.481 48.8612ZM65.6735 44.1818L61.8381 45.2513L64.5847 54.7677L68.4201 53.6982L65.6735 44.1818ZM67.2276 53.0017L69.5175 50.0571L61.4851 44.0726L59.1952 47.0173L67.2276 53.0017ZM69.4349 43.9521L66.9343 40.918L59.0672 47.1436L61.5678 50.1777L69.4349 43.9521ZM61.4664 48.748L65.3822 49.9621L68.451 40.5278L64.5351 39.3137L61.4664 48.748ZM70.9328 48.2372L73.2227 45.2925L65.1903 39.3081L62.9004 42.2527L70.9328 48.2372Z" fill="#C4BABA" mask="url(#path-6-inside-2)"/>
</svg>
